<svg id="Ebene_1" data-name="Ebene 1" xmlns="http://www.w3.org/2000/svg" viewBox="0 0 78.45 78.45"><defs><style>.cls-1{fill:#fdebe6;}.cls-2{fill:#f7cfc5;}.cls-3{fill:#924d1a;}.cls-4{fill:#f5bb93;}.cls-5{fill:#b77b5a;}.cls-6{fill:#dc3b3a;}.cls-7{fill:#383333;}</style></defs><title>CustomerIcon</title><circle class="cls-1" cx="39.22" cy="39.22" r="39.22"/><path class="cls-2" d="M89.42,50.35a39.08,39.08,0,0,0-4.23-17.72l-28-11.19V79.26l19.67-.15A39.14,39.14,0,0,0,89.42,50.35Z" transform="translate(-10.97 -11.13)"/><polygon class="cls-3" points="60.57 44.09 59.68 39.15 58.47 34.73 57.6 30.62 56.14 24.82 54.2 19.57 51.98 15.49 50.45 13.49 48.77 11.92 46.32 10.34 43.43 9.37 41.66 9.37 39.31 9.98 37.01 9.41 34.69 9.55 31.18 10.97 28.4 13.09 25.88 15.82 23.77 19.98 22.27 23.98 21.49 26.31 20.61 29.32 18.83 37.62 18.4 43.15 18.13 48.58 18.75 52.9 19.55 57.35 20.72 61.04 36.19 61.59 56.74 61.59 57.6 58.39 57.81 56.93 58.01 52.82 59.8 60.36 61.09 52.48 61.09 49.12 60.57 44.09"/><path class="cls-4" d="M74.67,73.38l-6.34-2.06-4.42-1.66L60.52,67.8l-1.47-1.44-.71-1.62-.58-2.15.17-4.26,1.51-1.91,1-2.4.48-1.26.47-1.67h.47l.76-.27.61-.68.38-.65L64.2,48l.53-2.43V44.11l-.16-.73-.48-.5-.28,0L63.4,43l-.44.28.28-1.68.32-2.15.16-3.24-.28-3.8-.54-2.6-2.33-4.25L57.47,23l-4.24-1.15-3-.28-3,.28L43,23l-3.1,2.6-2.33,4.25L37,32.42l-.28,3.8.16,3.24.32,2.15.28,1.68L37,43l-.41-.16-.27,0-.49.5-.16.73v1.42L36.23,48l.58,1.53.38.65.61.68.76.27H39l.48,1.67L40,54l1,2.4,1.51,1.91v4.18l-.4,2.23-.72,1.62L39.91,67.8l-3.39,1.86L32.1,71.32l-6.34,2.06-4.19,1.27-1.41.92a39.22,39.22,0,0,0,60.09,0l-1.39-.9Z" transform="translate(-10.97 -11.13)"/><polygon class="cls-5" points="34.82 50 37.95 50.51 40.59 50.5 43.13 49.88 45.48 48.63 46.96 47.2 46.96 51.38 47.36 53.62 44.85 52.07 41.47 52.19 38.16 51.91 34.82 50"/><polygon class="cls-3" points="53.86 38.6 51.28 34.57 50.36 30.88 49.4 27.23 48.64 24.74 47.49 21.86 45.74 19.29 43.7 18.21 41.97 17.95 39.9 17.95 38.28 18.08 35.9 18.91 33.88 20.79 32.35 23.32 30.99 27.1 29.94 32.28 29.07 36.4 26.41 45.34 19.98 53.62 24.73 21.7 25.83 18.19 27.7 14.69 31.41 11.8 36.46 10.03 43.74 10.39 48.99 12.39 52.49 18.34 54.02 24.13 54.89 28.12 55.16 33.66 56.04 42.18 53.86 38.6"/><path class="cls-6" d="M68.25,72.62l-.84,1.68-1.5,1.32-4.2,2.28-4.84,1.34L50.22,80l-6.65-.72L38.72,77.9l-4.2-2.28L33,74.3l-.84-1.68-.08-1.3-6.34,2.06-4.19,1.27-1.41.92s1.68,2,3.52,3.68a43.41,43.41,0,0,0,4.21,3.36,39.22,39.22,0,0,0,44.65,0,54.32,54.32,0,0,0,4.32-3.47,42.84,42.84,0,0,0,3.39-3.56l-1.39-.9-4.19-1.27-6.34-2.06Z" transform="translate(-10.97 -11.13)"/><polygon class="cls-7" points="50.36 29.43 48.89 29.3 47.43 29.21 45.89 29.21 44.09 29.35 42.7 29.55 41.36 29.89 40.16 30.3 38.3 30.3 37.1 29.89 35.76 29.55 34.37 29.35 32.57 29.21 31.04 29.21 29.57 29.3 28.1 29.43 26.92 29.66 26.92 31.12 27.32 31.48 27.53 31.9 27.69 33.01 27.9 34.35 28.11 35 28.39 35.49 28.7 35.94 29.13 36.35 29.63 36.7 30.14 36.97 30.79 37.23 31.73 37.41 33.71 37.41 34.89 37.21 35.66 36.9 36.24 36.54 36.79 35.9 37.19 35.28 37.41 34.75 37.92 33.23 38.32 32.43 38.83 32.07 39.63 32.07 40.14 32.43 40.54 33.23 41.05 34.75 41.27 35.28 41.67 35.9 42.22 36.54 42.8 36.9 43.57 37.21 44.75 37.41 46.73 37.41 47.67 37.23 48.33 36.97 48.84 36.7 49.33 36.35 49.76 35.94 50.07 35.49 50.34 35 50.56 34.35 50.77 33.01 50.93 31.9 51.15 31.48 51.54 31.12 51.54 29.66 50.36 29.43"/><polygon class="cls-4" points="45.07 36.2 44.13 35.98 43.41 35.53 42.71 34.63 42.3 33.56 42.03 32.36 42.03 31.72 42.24 31.39 42.84 31.04 43.76 30.77 44.76 30.6 47.27 30.6 48.32 30.79 48.72 30.94 48.98 31.18 49.14 31.56 49.22 32.09 49.22 33.18 49.04 34.18 48.85 34.65 48.54 35.11 48.12 35.57 47.7 35.88 47.29 36.07 46.73 36.2 45.07 36.2"/><polygon class="cls-4" points="31.73 36.2 31.17 36.07 30.75 35.88 30.34 35.57 29.92 35.11 29.61 34.65 29.42 34.17 29.24 33.18 29.24 32.09 29.32 31.55 29.49 31.18 29.74 30.94 30.15 30.79 31.2 30.6 33.7 30.6 34.7 30.77 35.63 31.05 36.22 31.39 36.44 31.72 36.43 32.37 36.16 33.56 35.75 34.64 35.05 35.53 34.32 35.98 33.38 36.2 31.73 36.2"/></svg>